<svg aria-hidden="true" style="position: absolute; width: 0; height: 0; overflow: hidden;" version="1.1" xmlns="http://www.w3.org/2000/svg" xmlns:xlink="http://www.w3.org/1999/xlink">
<defs>
<symbol id="user-icon" viewBox="0 0 30 32">
<path fill="none" opacity="0.8" stroke="currentColor" stroke-width="1.6842" stroke-miterlimit="4" stroke-linecap="round" stroke-linejoin="round" d="M25.263 27.368c0-1.768 0-2.644-0.219-3.368-0.502-1.618-1.75-2.867-3.333-3.359l-0.036-0.010c-0.707-0.219-1.6-0.219-3.368-0.219h-6.299c-0.261-0.019-0.565-0.030-0.872-0.030-0.883 0-1.746 0.091-2.578 0.263l0.082-0.014c-1.618 0.502-2.867 1.75-3.359 3.333l-0.010 0.036c-0.219 0.724-0.219 1.6-0.219 3.368M20.851 10.307c0 3.139-2.545 5.684-5.684 5.684s-5.684-2.545-5.684-5.684v0c0-3.139 2.545-5.684 5.684-5.684s5.684 2.545 5.684 5.684v0z"></path>
</symbol>
<symbol id="password-icon" viewBox="0 0 30 32">
<path fill="none" opacity="0.8" stroke="currentColor" stroke-width="1.6842" stroke-miterlimit="4" stroke-linecap="round" stroke-linejoin="round" d="M21.474 14.737v-3.789c0-3.488-2.828-6.316-6.316-6.316s-6.316 2.828-6.316 6.316v0 3.789M9.853 27.368h10.611c2.122 0 3.183 0 3.992-0.421 0.707-0.354 1.297-0.943 1.651-1.651 0.421-0.808 0.421-1.869 0.421-3.992v-0.505c0-2.122 0-3.183-0.421-3.992-0.37-0.713-0.937-1.281-1.63-1.641l-0.021-0.010c-0.808-0.421-1.869-0.421-3.992-0.421h-10.611c-2.122 0-3.183 0-3.992 0.421-0.707 0.354-1.297 0.943-1.651 1.651-0.421 0.808-0.421 1.869-0.421 3.992v0.505c0 2.122 0 3.183 0.421 3.992 0.354 0.707 0.943 1.297 1.651 1.651 0.808 0.421 1.869 0.421 3.992 0.421z"></path>
</symbol>
<symbol id="mail-icon" viewBox="0 0 30 32">
<path fill="none" opacity="0.8" stroke="currentColor" stroke-width="1.6842" stroke-miterlimit="4" stroke-linecap="round" stroke-linejoin="round" d="M2.526 9.684l10.307 7.225c0.842 0.573 1.263 0.876 1.718 0.977 0.404 0.101 0.808 0.101 1.213 0 0.455-0.101 0.876-0.404 1.718-0.977l10.307-7.225M8.589 26.105h13.137c2.122 0 3.183 0 3.992-0.421 0.707-0.354 1.297-0.943 1.651-1.651 0.421-0.808 0.421-1.869 0.421-3.992v-8.084c0-2.122 0-3.183-0.421-3.992-0.37-0.713-0.937-1.281-1.63-1.641l-0.021-0.010c-0.808-0.421-1.869-0.421-3.992-0.421h-13.137c-2.122 0-3.183 0-3.992 0.421-0.707 0.354-1.297 0.943-1.651 1.651-0.421 0.808-0.421 1.869-0.421 3.992v8.084c0 2.122 0 3.183 0.421 3.992 0.354 0.707 0.943 1.297 1.651 1.651 0.808 0.421 1.869 0.421 3.992 0.421z"></path>
</symbol>
</defs>
</svg>
