<svg aria-hidden="true" style="position: absolute; width: 0; height: 0; overflow: hidden;" version="1.1" xmlns="http://www.w3.org/2000/svg" xmlns:xlink="http://www.w3.org/1999/xlink">
<defs>
<symbol id="check-icon" viewBox="0 0 32 32">
<path d="M26.152 1.404c0.582-0.866 1.558-1.428 2.665-1.428 1.767 0 3.2 1.433 3.2 3.2 0 0.681-0.212 1.311-0.575 1.83l0.007-0.010-17.355 25.6c-0.584 0.852-1.552 1.404-2.648 1.404s-2.065-0.552-2.641-1.393l-0.007-0.011-8.245-12.16c-0.355-0.508-0.568-1.139-0.568-1.82 0-1.767 1.433-3.2 3.2-3.2 1.107 0 2.083 0.562 2.657 1.417l0.007 0.011 5.596 8.254 14.707-21.696z"></path>
</symbol>
<symbol id="clock-icon" viewBox="0 0 32 32">
<path stroke-width="2.9714" stroke-miterlimit="4" stroke-linecap="round" stroke-linejoin="round" d="M16 29.326c7.36 0 13.326-5.966 13.326-13.326s-5.966-13.326-13.326-13.326v0c-7.36 0-13.326 5.966-13.326 13.326s5.966 13.326 13.326 13.326v0z"></path>
<path stroke-width="2.9714" stroke-miterlimit="4" stroke-linecap="round" stroke-linejoin="round" d="M16 8v8l5.326 2.674"></path>
</symbol>
<symbol id="alt-arrow-down-icon" viewBox="0 0 34 32">
<path fill="none" stroke="#8baa36" stroke-width="2.9714" stroke-miterlimit="4" stroke-linecap="round" stroke-linejoin="round" d="M9.143 12l8 8 8-8"></path>
</symbol>
<symbol id="search-icon" viewBox="0 0 32 32">
<path stroke-width="2.56" stroke-miterlimit="4" stroke-linecap="round" stroke-linejoin="round" d="M14.667 25.333c5.891 0 10.667-4.776 10.667-10.667s-4.776-10.667-10.667-10.667c-5.891 0-10.667 4.776-10.667 10.667s4.776 10.667 10.667 10.667z"></path>
<path stroke-width="2.56" stroke-miterlimit="4" stroke-linecap="round" stroke-linejoin="round" d="M28 28l-5.8-5.8"></path>
</symbol>
<symbol id="cancel-icon" viewBox="0 0 32 32">
<path stroke-width="2" stroke-miterlimit="4" stroke-linecap="round" stroke-linejoin="round" d="M22.67 9.33l-13.34 13.34M9.33 9.33l13.34 13.34"></path>
</symbol>
<symbol id="menu-icon" viewBox="0 0 32 32">
<path stroke-width="2.2857" stroke-miterlimit="4" stroke-linecap="round" stroke-linejoin="round" d="M4 16h24M4 8h24M4 24h16"></path>
</symbol>
<symbol id="edit-icon" viewBox="0 0 32 32">
<path stroke-width="2.7733" stroke-miterlimit="4" stroke-linecap="round" stroke-linejoin="round" d="M4.544 24.597c0.085-0.875 0.149-1.323 0.277-1.728 0.126-0.398 0.293-0.745 0.501-1.062l-0.010 0.016c0.235-0.363 0.555-0.661 1.173-1.28l15.744-15.744c0.637-0.635 1.515-1.027 2.485-1.027s1.849 0.393 2.485 1.027l-0-0c1.365 1.365 1.365 3.605 0 4.971l-15.723 15.744c-0.64 0.619-0.939 0.939-1.301 1.173-0.301 0.198-0.647 0.364-1.015 0.482l-0.030 0.008c-0.427 0.149-0.853 0.192-1.728 0.277l-3.221 0.363 0.363-3.2z"></path>
</symbol>
<symbol id="arrow-right-icon" viewBox="0 0 32 32">
<path fill="none" stroke="currentColor" stroke-width="2.1895" stroke-miterlimit="4" stroke-linecap="round" stroke-linejoin="round" d="M5.474 16h16.842M16 7.158l8.842 8.842-8.842 8.842"></path>
</symbol>
<symbol id="twitter-icon" viewBox="0 0 32 32">
<path d="M10.064 28.8c12.075 0 18.68-9.85 18.68-18.391 0-0.28 0-0.559-0.019-0.836 1.285-0.914 2.394-2.048 3.275-3.346-1.197 0.523-2.469 0.866-3.77 1.018 1.37-0.808 2.395-2.078 2.886-3.576-1.29 0.753-2.699 1.284-4.17 1.569-2.486-2.602-6.645-2.728-9.29-0.28-1.704 1.578-2.429 3.932-1.899 6.177-5.278-0.261-10.197-2.716-13.531-6.753-1.742 2.954-0.851 6.731 2.034 8.628-1.045-0.030-2.067-0.307-2.981-0.808v0.082c0.002 3.076 2.205 5.726 5.267 6.336-0.966 0.26-1.981 0.298-2.963 0.11 0.859 2.634 3.325 4.438 6.133 4.49-2.325 1.799-5.197 2.776-8.154 2.772-0.522-0.002-1.043-0.032-1.563-0.093 3.003 1.897 6.496 2.903 10.064 2.898z"></path>
</symbol>
<symbol id="instagram-icon" viewBox="0 0 32 32">
<path d="M16 24c-4.418 0-8-3.582-8-8s3.582-8 8-8c4.418 0 8 3.582 8 8s-3.582 8-8 8zM16 21.333c2.945 0 5.333-2.388 5.333-5.333s-2.388-5.333-5.333-5.333c-2.946 0-5.333 2.388-5.333 5.333s2.388 5.333 5.333 5.333z"></path>
<path d="M24 6.667c-0.736 0-1.333 0.597-1.333 1.333s0.597 1.333 1.333 1.333c0.736 0 1.333-0.597 1.333-1.333s-0.597-1.333-1.333-1.333z"></path>
<path d="M2.205 5.701c0.767-1.505 1.991-2.729 3.496-3.496 1.711-0.872 3.951-0.872 8.432-0.872h3.733c4.48 0 6.721 0 8.432 0.872 1.505 0.767 2.729 1.991 3.496 3.496 0.872 1.711 0.872 3.951 0.872 8.432v3.733c0 4.48 0 6.721-0.872 8.432-0.767 1.505-1.991 2.729-3.496 3.496-1.711 0.872-3.951 0.872-8.432 0.872h-3.733c-4.48 0-6.721 0-8.432-0.872-1.505-0.767-2.729-1.991-3.496-3.496-0.872-1.711-0.872-3.951-0.872-8.432v-3.733c0-4.48 0-6.721 0.872-8.432zM17.867 4h-3.733c-2.284 0-3.837 0.002-5.037 0.1-1.169 0.096-1.767 0.269-2.184 0.481-1.004 0.511-1.819 1.327-2.331 2.331-0.213 0.417-0.386 1.015-0.481 2.184-0.098 1.2-0.1 2.753-0.1 5.037v3.733c0 2.284 0.002 3.837 0.1 5.037 0.096 1.169 0.269 1.767 0.481 2.184 0.511 1.003 1.327 1.819 2.331 2.331 0.417 0.213 1.015 0.386 2.184 0.481 1.2 0.098 2.753 0.1 5.037 0.1h3.733c2.284 0 3.837-0.002 5.037-0.1 1.169-0.095 1.767-0.269 2.184-0.481 1.003-0.511 1.819-1.327 2.331-2.331 0.213-0.417 0.386-1.015 0.481-2.184 0.098-1.2 0.1-2.753 0.1-5.037v-3.733c0-2.284-0.002-3.837-0.1-5.037-0.095-1.169-0.269-1.767-0.481-2.184-0.511-1.004-1.327-1.819-2.331-2.331-0.417-0.213-1.015-0.386-2.184-0.481-1.2-0.098-2.753-0.1-5.037-0.1z"></path>
</symbol>
<symbol id="facebook-icon" viewBox="0 0 32 32">
<path d="M16 2.72c-7.333 0-13.333 5.987-13.333 13.36 0 6.667 4.88 12.2 11.253 13.2v-9.333h-3.387v-3.867h3.387v-2.947c0-3.347 1.987-5.187 5.040-5.187 1.453 0 2.973 0.253 2.973 0.253v3.293h-1.68c-1.653 0-2.173 1.027-2.173 2.080v2.507h3.707l-0.6 3.867h-3.107v9.333c3.142-0.496 6.003-2.099 8.067-4.52s3.194-5.499 3.187-8.68c0-7.373-6-13.36-13.333-13.36z"></path>
</symbol>
<symbol id="youtube-icon" viewBox="0 0 32 32">
<path d="M12.781 20.137v-8.979c3.188 1.5 5.656 2.949 8.576 4.511-2.408 1.336-5.389 2.834-8.576 4.468zM30.546 6.693c-0.55-0.724-1.487-1.288-2.485-1.474-2.933-0.557-21.227-0.558-24.158 0-0.8 0.15-1.512 0.512-2.124 1.075-2.579 2.393-1.771 15.229-1.149 17.308 0.261 0.9 0.599 1.549 1.025 1.975 0.548 0.563 1.299 0.951 2.161 1.125 2.415 0.499 14.854 0.779 24.195 0.075 0.861-0.15 1.622-0.55 2.223-1.138 2.384-2.384 2.222-15.94 0.312-18.947z"></path>
</symbol>
<symbol id="user-icon" viewBox="0 0 30 32">
<path fill="none" opacity="0.8" stroke="currentColor" stroke-width="1.6842" stroke-miterlimit="4" stroke-linecap="round" stroke-linejoin="round" d="M25.263 27.368c0-1.768 0-2.644-0.219-3.368-0.502-1.618-1.75-2.867-3.333-3.359l-0.036-0.010c-0.707-0.219-1.6-0.219-3.368-0.219h-6.299c-0.261-0.019-0.565-0.030-0.872-0.030-0.883 0-1.746 0.091-2.578 0.263l0.082-0.014c-1.618 0.502-2.867 1.75-3.359 3.333l-0.010 0.036c-0.219 0.724-0.219 1.6-0.219 3.368M20.851 10.307c0 3.139-2.545 5.684-5.684 5.684s-5.684-2.545-5.684-5.684v0c0-3.139 2.545-5.684 5.684-5.684s5.684 2.545 5.684 5.684v0z"></path>
</symbol>
<symbol id="password-icon" viewBox="0 0 30 32">
<path fill="none" opacity="0.8" stroke="currentColor" stroke-width="1.6842" stroke-miterlimit="4" stroke-linecap="round" stroke-linejoin="round" d="M21.474 14.737v-3.789c0-3.488-2.828-6.316-6.316-6.316s-6.316 2.828-6.316 6.316v0 3.789M9.853 27.368h10.611c2.122 0 3.183 0 3.992-0.421 0.707-0.354 1.297-0.943 1.651-1.651 0.421-0.808 0.421-1.869 0.421-3.992v-0.505c0-2.122 0-3.183-0.421-3.992-0.37-0.713-0.937-1.281-1.63-1.641l-0.021-0.010c-0.808-0.421-1.869-0.421-3.992-0.421h-10.611c-2.122 0-3.183 0-3.992 0.421-0.707 0.354-1.297 0.943-1.651 1.651-0.421 0.808-0.421 1.869-0.421 3.992v0.505c0 2.122 0 3.183 0.421 3.992 0.354 0.707 0.943 1.297 1.651 1.651 0.808 0.421 1.869 0.421 3.992 0.421z"></path>
</symbol>
<symbol id="mail-icon" viewBox="0 0 30 32">
<path fill="none" opacity="0.8" stroke="currentColor" stroke-width="1.6842" stroke-miterlimit="4" stroke-linecap="round" stroke-linejoin="round" d="M2.526 9.684l10.307 7.225c0.842 0.573 1.263 0.876 1.718 0.977 0.404 0.101 0.808 0.101 1.213 0 0.455-0.101 0.876-0.404 1.718-0.977l10.307-7.225M8.589 26.105h13.137c2.122 0 3.183 0 3.992-0.421 0.707-0.354 1.297-0.943 1.651-1.651 0.421-0.808 0.421-1.869 0.421-3.992v-8.084c0-2.122 0-3.183-0.421-3.992-0.37-0.713-0.937-1.281-1.63-1.641l-0.021-0.010c-0.808-0.421-1.869-0.421-3.992-0.421h-13.137c-2.122 0-3.183 0-3.992 0.421-0.707 0.354-1.297 0.943-1.651 1.651-0.421 0.808-0.421 1.869-0.421 3.992v8.084c0 2.122 0 3.183 0.421 3.992 0.354 0.707 0.943 1.297 1.651 1.651 0.808 0.421 1.869 0.421 3.992 0.421z"></path>
</symbol>
</defs>
</svg>
